<?xml version="1.0" standalone="no"?>
<!DOCTYPE svg PUBLIC "-//W3C//DTD SVG 20010904//EN"
 "http://www.w3.org/TR/2001/REC-SVG-20010904/DTD/svg10.dtd">
<svg version="1.0" xmlns="http://www.w3.org/2000/svg"
 width="84.000000pt" height="84.000000pt" viewBox="0 0 84.000000 84.000000"
 preserveAspectRatio="xMidYMid meet">
<metadata>
Created by potrace 1.11, written by Peter Selinger 2001-2013
</metadata>
<g transform="translate(0.000000,84.000000) scale(0.100000,-0.100000)"
fill="#000000" stroke="none">
<path d="M340 786 c-136 -44 -220 -168 -207 -306 6 -70 37 -145 98 -233 42
-64 174 -207 189 -207 17 0 147 144 194 215 70 105 95 177 93 264 -4 108 -68
206 -166 252 -53 25 -148 32 -201 15z m114 -196 c28 -10 55 -55 50 -83 -13
-84 -118 -104 -156 -29 -19 40 -9 83 25 107 25 17 46 19 81 5z"/>
</g>
</svg>
